<?xml version="1.0" standalone="no"?>
<!DOCTYPE svg PUBLIC "-//W3C//DTD SVG 20010904//EN"
 "http://www.w3.org/TR/2001/REC-SVG-20010904/DTD/svg10.dtd">
<svg version="1.0" xmlns="http://www.w3.org/2000/svg"
 width="90.000000pt" height="90.000000pt" viewBox="0 0 90.000000 90.000000"
 preserveAspectRatio="xMidYMid meet">
<metadata>
Created by potrace 1.14, written by Peter Selinger 2001-2017
</metadata>
<g transform="translate(0.000000,90.000000) scale(0.100000,-0.100000)"
fill="#000000" stroke="none">
<path d="M5 888 c-3 -7 -4 -209 -3 -448 l3 -435 445 0 445 0 0 445 0 445 -443
3 c-349 2 -444 0 -447 -10z m535 -248 l0 -100 100 0 100 0 0 -90 0 -90 -100 0
-100 0 0 -100 0 -100 -90 0 -90 0 0 100 0 100 -100 0 -100 0 0 90 0 90 100 0
100 0 0 100 0 100 90 0 90 0 0 -100z"/>
</g>
</svg>
